<svg xmlns="http://www.w3.org/2000/svg" width="32.141" height="149.111" viewBox="0 0 32.141 149.111">
  <g id="Group_622" data-name="Group 622" transform="translate(-865.111 -13053)">
    <path id="facebook-square-brands" d="M25.1,32H3.012A3.012,3.012,0,0,0,0,35.012V57.1a3.012,3.012,0,0,0,3.012,3.012h8.612V50.554H7.671v-4.5h3.953V42.627c0-3.9,2.322-6.054,5.878-6.054a23.949,23.949,0,0,1,3.484.3V40.7H19.023a2.249,2.249,0,0,0-2.536,2.43v2.921H20.8l-.69,4.5H16.487v9.557H25.1A3.012,3.012,0,0,0,28.111,57.1V35.012A3.012,3.012,0,0,0,25.1,32Z" transform="translate(867.111 13021)"/>
    <path id="twitter-brands" d="M28.837,54.588c.02.285.02.571.02.857,0,8.708-6.628,18.742-18.742,18.742A18.615,18.615,0,0,1,0,71.229a13.627,13.627,0,0,0,1.591.082A13.192,13.192,0,0,0,9.769,68.5,6.6,6.6,0,0,1,3.61,63.928a8.308,8.308,0,0,0,1.244.1,6.967,6.967,0,0,0,1.733-.224,6.588,6.588,0,0,1-5.282-6.465v-.082a6.634,6.634,0,0,0,2.977.836,6.6,6.6,0,0,1-2.039-8.81,18.724,18.724,0,0,0,13.582,6.893,7.436,7.436,0,0,1-.163-1.509,6.593,6.593,0,0,1,11.4-4.507,12.969,12.969,0,0,0,4.181-1.591,6.569,6.569,0,0,1-2.9,3.63,13.205,13.205,0,0,0,3.793-1.02,14.16,14.16,0,0,1-3.3,3.406Z" transform="translate(865.111 13066.918)"/>
    <path id="instagram-brands_1_" data-name="instagram-brands(1)" d="M13.984,38.673a7.207,7.207,0,1,0,7.206,7.207A7.2,7.2,0,0,0,13.984,38.673Zm0,11.893a4.686,4.686,0,1,1,4.685-4.686,4.694,4.694,0,0,1-4.685,4.686Zm9.181-12.188A1.681,1.681,0,1,1,21.484,36.7,1.677,1.677,0,0,1,23.165,38.378Zm4.772,1.706a8.32,8.32,0,0,0-2.27-5.89,8.371,8.371,0,0,0-5.889-2.271c-2.32-.132-9.275-.132-11.6,0a8.359,8.359,0,0,0-5.889,2.264,8.348,8.348,0,0,0-2.27,5.89c-.132,2.321-.132,9.277,0,11.6a8.32,8.32,0,0,0,2.27,5.89,8.382,8.382,0,0,0,5.889,2.271c2.32.132,9.275.132,11.6,0a8.316,8.316,0,0,0,5.889-2.271,8.375,8.375,0,0,0,2.27-5.89C28.069,49.356,28.069,42.406,27.938,40.085Zm-3,14.082a4.743,4.743,0,0,1-2.672,2.672c-1.85.734-6.24.565-8.284.565s-6.441.163-8.284-.565a4.743,4.743,0,0,1-2.672-2.672c-.734-1.85-.564-6.241-.564-8.286s-.163-6.442.564-8.286A4.743,4.743,0,0,1,5.7,34.922c1.85-.734,6.24-.565,8.284-.565s6.441-.163,8.284.565a4.743,4.743,0,0,1,2.672,2.672c.734,1.85.564,6.241.564,8.286S25.674,52.323,24.94,54.167Z" transform="translate(867.185 13142.175)"/>
  </g>
</svg>
